<svg width="315" height="317" viewBox="0 0 315 317" fill="none" xmlns="http://www.w3.org/2000/svg">
<path d="M65 31.5L7.5 103M65 31.5L39 132.5M65 31.5L130.965 11.5M7.5 103L3 172L7.5 199M7.5 103L57 55M7.5 103V199M7.5 103L39 132.5M7.5 199L9.5 203M65 280L34.5 253L9.5 203M65 280L103.5 304.5L159 314.5M65 280L8.5 201L39 132.5M65 280L159 314.5M65 280L59 218.5M65 280L134.5 262M159 314.5L253 286.5M159 314.5L281.5 218.5M159 314.5L134.5 262M253 286.5L307.5 213M253 286.5L214 274M253 286.5L281.5 218.5M307.5 213L312.5 148.5M307.5 213L281.5 218.5M312.5 148.5L281.5 66M312.5 148.5L281.5 218.5M312.5 148.5L264 128M281.5 66L214 11.5M281.5 66L264 128M281.5 66L208.5 49M214 11.5L159 3L130.965 11.5M214 11.5L208.5 49M214 11.5H130.965M39 132.5L59 218.5M39 132.5L117 172M39 132.5L117 75.5M281.5 218.5L264 128M281.5 218.5L211.5 204.5M264 128L208.5 49M264 128L186.5 122M264 128L211.5 204.5M208.5 49L130.965 11.5M208.5 49L117 75.5M208.5 49L186.5 122M130.965 11.5L117 75.5M130.965 11.5L57 55M117 75.5V172M117 75.5L57 55M117 75.5L186.5 122M117 172L134.5 262M117 172L59 218.5M117 172L186.5 122M117 172L211.5 204.5M134.5 262L59 218.5M134.5 262L214 274M134.5 262L211.5 204.5M59 218.5L9.5 203M186.5 122L211.5 204.5M211.5 204.5L214 274" stroke="white" stroke-width="4"/>
<path d="M94.28 217.6C85.32 217.6 76.68 215.84 68.36 212.32C60.04 208.8 52.68 203.84 46.28 197.44L56.52 185.6C62.6 191.573 68.7867 196 75.08 198.88C81.48 201.76 88.1467 203.2 95.08 203.2C100.52 203.2 105.267 202.453 109.32 200.96C113.48 199.36 116.68 197.12 118.92 194.24C121.16 191.36 122.28 188.107 122.28 184.48C122.28 179.467 120.52 175.627 117 172.96C113.48 170.293 107.667 168.267 99.56 166.88L80.84 163.84C70.6 162.027 62.92 158.72 57.8 153.92C52.7867 149.12 50.28 142.72 50.28 134.72C50.28 128.32 51.9867 122.72 55.4 117.92C58.8133 113.013 63.6133 109.227 69.8 106.56C76.0933 103.893 83.3467 102.56 91.56 102.56C99.6667 102.56 107.613 103.893 115.4 106.56C123.293 109.12 130.387 112.853 136.68 117.76L127.4 130.56C115.347 121.387 103.133 116.8 90.76 116.8C85.8533 116.8 81.5867 117.493 77.96 118.88C74.3333 120.267 71.5067 122.24 69.48 124.8C67.4533 127.253 66.44 130.133 66.44 133.44C66.44 138.027 67.9867 141.547 71.08 144C74.1733 146.347 79.2933 148.053 86.44 149.12L104.52 152.16C116.36 154.08 125.053 157.547 130.6 162.56C136.147 167.573 138.92 174.453 138.92 183.2C138.92 190.027 137.053 196.053 133.32 201.28C129.587 206.4 124.36 210.4 117.64 213.28C110.92 216.16 103.133 217.6 94.28 217.6ZM208.245 217.76C200.032 217.76 192.352 216.267 185.205 213.28C178.165 210.293 171.978 206.187 166.645 200.96C161.312 195.627 157.152 189.493 154.165 182.56C151.178 175.52 149.685 168 149.685 160C149.685 152 151.125 144.533 154.005 137.6C156.992 130.56 161.152 124.427 166.485 119.2C171.818 113.867 178.005 109.707 185.045 106.72C192.085 103.733 199.712 102.24 207.925 102.24C216.778 102.24 225.152 103.947 233.045 107.36C240.938 110.773 247.605 115.52 253.045 121.6L241.525 132.8C237.472 128 232.458 124.32 226.485 121.76C220.618 119.093 214.432 117.76 207.925 117.76C202.058 117.76 196.618 118.827 191.605 120.96C186.698 123.093 182.378 126.08 178.645 129.92C174.912 133.653 171.978 138.08 169.845 143.2C167.818 148.32 166.805 153.92 166.805 160C166.805 165.973 167.818 171.573 169.845 176.8C171.978 181.92 174.912 186.4 178.645 190.24C182.485 194.08 186.912 197.067 191.925 199.2C196.938 201.333 202.378 202.4 208.245 202.4C214.858 202.4 220.832 201.013 226.165 198.24C231.605 195.467 236.032 191.68 239.445 186.88C242.858 181.973 244.938 176.48 245.685 170.4H208.405V155.68H263.285V161.44C263.285 169.44 261.898 176.853 259.125 183.68C256.352 190.507 252.458 196.48 247.445 201.6C242.538 206.72 236.725 210.72 230.005 213.6C223.285 216.373 216.032 217.76 208.245 217.76Z" fill="white"/>
</svg>
